<?xml version="1.0" encoding="UTF-8" standalone="no"?>
<!-- Created with Inkscape (http://www.inkscape.org/) -->

<svg
   version="1.1"
   id="svg159"
   xmlSpace="preserve"
   width="682.66669"
   height="682.66669"
   viewBox="0 0 682.66669 682.66669"
   xmlns="http://www.w3.org/2000/svg"
   xmlnsSvg="http://www.w3.org/2000/svg"><defs
     id="defs163"><clipPath
       clipPathUnits="userSpaceOnUse"
       id="clipPath173"><path
         d="M 0,512 H 512 V 0 H 0 Z"
         id="path171" /></clipPath></defs><g
     id="g165"
     transform="matrix(1.3333333,0,0,-1.3333333,0,682.66667)"><g
       id="g167"><g
         id="g169"
         clip-path="url(#clipPath173)"><g
           id="g175"
           transform="translate(173.6714,333.4487)"><path
             d="m 0,0 -55.077,-30.889 c -2.75,-1.531 -2.778,-3.857 0,-5.389 l 137.395,-76.527 137.424,76.527 c 2.75,1.532 2.75,3.858 0,5.389 L 82.318,45.638 26.476,14.551"
             style="fill:none;stroke:white;stroke-width:15;stroke-linecap:round;stroke-linejoin:round;stroke-miterlimit:10;stroke-dasharray:none;stroke-opacity:1"
             id="path177" /></g><g
           id="g179"
           transform="translate(255.9897,9.5)"><path
             d="m 0,0 c 49.238,0 89.376,40.164 89.376,89.433 0,49.269 -40.138,89.432 -89.376,89.432 -49.238,0 -89.376,-40.163 -89.376,-89.432 C -89.376,40.164 -49.238,0 0,0 Z"
             style="fill:none;stroke:white;stroke-width:15;stroke-linecap:round;stroke-linejoin:round;stroke-miterlimit:10;stroke-dasharray:none;stroke-opacity:1"
             id="path181" /></g><g
           id="g183"
           transform="translate(255.9897,222.1758)"><path
             d="M 0,0 V -33.811"
             style="fill:none;stroke:white;stroke-width:15;stroke-linecap:round;stroke-linejoin:round;stroke-miterlimit:10;stroke-dasharray:none;stroke-opacity:1"
             id="path185" /></g><g
           id="g187"
           transform="translate(167.0103,107.4136)"><path
             d="m 0,0 -44.561,24.819 c -6.548,3.659 -5.924,4.992 -5.924,14.948 V 192.452 M 228.472,91.39 V 39.767 c 0,-9.956 0.596,-11.289 -5.924,-14.948 L 177.958,0 m 50.514,192.452 v -66.401"
             style="fill:none;stroke:white;stroke-width:15;stroke-linecap:round;stroke-linejoin:round;stroke-miterlimit:10;stroke-dasharray:none;stroke-opacity:1"
             id="path189" /></g><g
           id="g191"
           transform="translate(269.9648,124.6309)"><path
             d="m 0,0 h 15.307 c 9.892,0 17.971,-8.084 17.971,-17.955 v -15.487 c 0,-9.871 -8.079,-17.954 -17.971,-17.954 H 0 c -1.446,0 -2.637,1.191 -2.637,2.638 v 46.12 C -2.637,-1.191 -1.446,0 0,0 Z"
             style="fill:none;stroke:white;stroke-width:15;stroke-linecap:round;stroke-linejoin:round;stroke-miterlimit:10;stroke-dasharray:none;stroke-opacity:1"
             id="path193" /></g><g
           id="g195"
           transform="translate(208.7646,98.9326)"><path
             d="M 0,0 H 31.067"
             style="fill:none;stroke:white;stroke-width:15;stroke-linecap:round;stroke-linejoin:round;stroke-miterlimit:10;stroke-dasharray:none;stroke-opacity:1"
             id="path197" /></g><g
           id="g199"
           transform="translate(208.7646,73.2344)"><path
             d="m 0,0 h 25.285 c 3.174,0 5.782,2.582 5.782,5.787 V 45.61 c 0,3.205 -2.608,5.786 -5.782,5.786 H 0"
             style="fill:none;stroke:white;stroke-width:15;stroke-linecap:round;stroke-linejoin:round;stroke-miterlimit:10;stroke-dasharray:none;stroke-opacity:1"
             id="path201" /></g><g
           id="g203"
           transform="translate(117.0635,137.2812)"><path
             d="M 0,0 -108.992,-60.7"
             style="fill:none;stroke:white;stroke-width:15;stroke-linecap:round;stroke-linejoin:round;stroke-miterlimit:10;stroke-dasharray:none;stroke-opacity:1"
             id="path205" /></g><g
           id="g207"
           transform="translate(55.4668,61.6621)"><path
             d="m 0,0 -44.646,12.735 c -1.219,0.341 -2.183,1.163 -2.75,2.184 -0.566,1.021 -0.736,2.241 -0.396,3.461 l 12.699,44.674"
             style="fill:none;stroke:white;stroke-width:15;stroke-linecap:round;stroke-linejoin:round;stroke-miterlimit:10;stroke-dasharray:none;stroke-opacity:1"
             id="path209" /></g><g
           id="g211"
           transform="translate(394.9443,137.2812)"><path
             d="M 0,0 108.964,-60.7"
             style="fill:none;stroke:white;stroke-width:15;stroke-linecap:round;stroke-linejoin:round;stroke-miterlimit:10;stroke-dasharray:none;stroke-opacity:1"
             id="path213" /></g><g
           id="g215"
           transform="translate(456.541,61.6621)"><path
             d="m 0,0 44.646,12.735 c 1.19,0.341 2.154,1.163 2.721,2.184 0.567,1.021 0.765,2.241 0.425,3.461 L 35.064,63.054"
             style="fill:none;stroke:white;stroke-width:15;stroke-linecap:round;stroke-linejoin:round;stroke-miterlimit:10;stroke-dasharray:none;stroke-opacity:1"
             id="path217" /></g><g
           id="g219"
           transform="translate(255.9897,377.5552)"><path
             d="M 0,0 V 124.945"
             style="fill:none;stroke:white;stroke-width:15;stroke-linecap:round;stroke-linejoin:round;stroke-miterlimit:10;stroke-dasharray:none;stroke-opacity:1"
             id="path221" /></g><g
           id="g223"
           transform="translate(292.0459,468.3208)"><path
             d="m 0,0 -32.825,32.846 c -0.878,0.908 -2.07,1.333 -3.231,1.333 -1.162,0 -2.325,-0.425 -3.232,-1.333 L -72.113,0"
             style="fill:none;stroke:white;stroke-width:15;stroke-linecap:round;stroke-linejoin:round;stroke-miterlimit:10;stroke-dasharray:none;stroke-opacity:1"
             id="path225" /></g></g></g></g></svg>
