<?xml version="1.0" encoding="UTF-8" standalone="no"?>
<svg
   width="512"
   height="512"
   viewBox="12 12 128 128"
   version="1.1"
   id="svg1552"
   xmlns="http://www.w3.org/2000/svg"
   xmlnsSvg="http://www.w3.org/2000/svg">
  <defs
     id="defs1556" />
  <g
     id="g1550">
    <path style="fill:none;stroke:white;stroke-width:1;stroke-linecap:round;stroke-linejoin:round;stroke-miterlimit:10;stroke-dasharray:none;stroke-opacity:1"
       d="m 94.5,59.71 h 19.594 a 4.751,4.751 0 1 0 0,-3.5 H 94.5 v -8.59 h 12.63 a 1.751,1.751 0 0 0 1.75,-1.75 V 34.34 h 5.214 a 4.751,4.751 0 1 0 0,-3.5 h -6.964 a 1.751,1.751 0 0 0 -1.75,1.75 V 44.12 H 94.5 V 35.25 A 1.751,1.751 0 0 0 92.75,33.5 H 83.88 V 22.62 h 11.53 a 1.751,1.751 0 0 0 1.75,-1.75 v -6.964 a 4.749,4.749 0 1 0 -3.5,0 V 19.12 H 82.13 a 1.751,1.751 0 0 0 -1.75,1.75 V 33.5 H 71.79 V 13.907 a 4.749,4.749 0 1 0 -3.5,0 V 33.5 H 59.71 V 13.906 a 4.751,4.751 0 1 0 -3.5,0 V 33.5 H 47.62 V 20.87 A 1.751,1.751 0 0 0 45.87,19.12 H 34.34 v -5.214 a 4.751,4.751 0 1 0 -3.5,0 v 6.964 a 1.751,1.751 0 0 0 1.75,1.75 H 44.12 V 33.5 h -8.87 a 1.751,1.751 0 0 0 -1.75,1.75 v 8.87 H 22.62 V 32.59 a 1.751,1.751 0 0 0 -1.75,-1.75 h -6.963 a 4.75,4.75 0 1 0 0,3.5 h 5.213 v 11.53 a 1.751,1.751 0 0 0 1.75,1.75 H 33.5 v 8.59 H 13.907 a 4.749,4.749 0 1 0 0,3.5 H 33.5 v 8.58 H 13.906 a 4.751,4.751 0 1 0 0,3.5 H 33.5 v 8.59 H 20.87 a 1.751,1.751 0 0 0 -1.75,1.75 v 11.53 h -5.214 a 4.751,4.751 0 1 0 0,3.5 h 6.964 a 1.751,1.751 0 0 0 1.75,-1.75 V 83.88 H 33.5 v 8.87 a 1.751,1.751 0 0 0 1.75,1.75 h 8.87 v 10.88 H 32.59 a 1.751,1.751 0 0 0 -1.75,1.75 v 6.964 a 4.749,4.749 0 1 0 3.5,0 v -5.214 h 11.53 a 1.751,1.751 0 0 0 1.75,-1.75 V 94.5 h 8.59 v 19.593 a 4.749,4.749 0 1 0 3.5,0 V 94.5 h 8.58 v 19.594 a 4.751,4.751 0 1 0 3.5,0 V 94.5 h 8.59 v 12.63 a 1.751,1.751 0 0 0 1.75,1.75 h 11.53 v 5.214 a 4.75,4.75 0 1 0 3.5,0 v -6.964 a 1.751,1.751 0 0 0 -1.75,-1.75 H 83.88 V 94.5 h 8.87 a 1.751,1.751 0 0 0 1.75,-1.75 v -8.87 h 10.88 v 11.53 a 1.751,1.751 0 0 0 1.75,1.75 h 6.964 a 4.749,4.749 0 1 0 0,-3.5 H 108.88 V 82.13 a 1.751,1.751 0 0 0 -1.75,-1.75 H 94.5 v -8.59 h 19.593 a 4.749,4.749 0 1 0 0,-3.5 H 94.5 Z m 24,-3 a 1.25,1.25 0 1 1 -1.25,1.25 1.252,1.252 0 0 1 1.25,-1.252 z m 0,-25.369 a 1.25,1.25 0 1 1 -1.25,1.25 1.252,1.252 0 0 1 1.25,-1.252 z M 95.411,8.25 a 1.25,1.25 0 1 1 -1.25,1.25 1.252,1.252 0 0 1 1.25,-1.25 z m -25.369,0 a 1.25,1.25 0 1 1 -1.25,1.25 1.252,1.252 0 0 1 1.25,-1.25 z m -12.084,0 a 1.25,1.25 0 1 1 -1.25,1.25 1.251,1.251 0 0 1 1.25,-1.25 z m -25.369,0 a 1.25,1.25 0 1 1 -1.25,1.25 1.251,1.251 0 0 1 1.25,-1.25 z M 9.5,33.839 a 1.25,1.25 0 1 1 1.25,-1.25 1.251,1.251 0 0 1 -1.25,1.25 z m 0,25.369 a 1.25,1.25 0 1 1 1.25,-1.25 1.251,1.251 0 0 1 -1.25,1.25 z m 0,12.084 a 1.25,1.25 0 1 1 1.25,-1.25 1.252,1.252 0 0 1 -1.25,1.25 z m 0,25.369 a 1.25,1.25 0 1 1 1.25,-1.25 1.252,1.252 0 0 1 -1.25,1.25 z m 23.089,23.089 a 1.25,1.25 0 1 1 1.25,-1.25 1.252,1.252 0 0 1 -1.25,1.25 z m 25.369,0 a 1.25,1.25 0 1 1 1.25,-1.25 1.252,1.252 0 0 1 -1.25,1.25 z m 12.084,0 a 1.25,1.25 0 1 1 1.25,-1.25 1.251,1.251 0 0 1 -1.25,1.25 z m 25.369,0 a 1.25,1.25 0 1 1 1.25,-1.25 1.251,1.251 0 0 1 -1.25,1.25 z M 118.5,94.161 a 1.25,1.25 0 1 1 -1.25,1.25 1.251,1.251 0 0 1 1.25,-1.25 z m 0,-25.369 a 1.25,1.25 0 1 1 -1.25,1.25 1.251,1.251 0 0 1 1.25,-1.25 z M 91,91 H 37 V 37 h 54 z"
       id="path1544" />
    <path style="fill:none;stroke:white;stroke-width:1;stroke-linecap:round;stroke-linejoin:round;stroke-miterlimit:10;stroke-dasharray:none;stroke-opacity:1"
       d="m 83.75,42.5 h -39.5 a 1.751,1.751 0 0 0 -1.75,1.75 v 39.5 a 1.751,1.751 0 0 0 1.75,1.75 h 39.5 A 1.751,1.751 0 0 0 85.5,83.75 V 44.25 A 1.751,1.751 0 0 0 83.75,42.5 Z M 82,82 H 46 V 46 h 36 z"
       id="path1546" />
    <path style="fill:none;stroke:white;stroke-width:1;stroke-linecap:round;stroke-linejoin:round;stroke-miterlimit:10;stroke-dasharray:none;stroke-opacity:1"
       d="m 77.75,66.583 a 1.751,1.751 0 0 0 1.75,-1.75 v -9.875 a 1.75,1.75 0 0 0 -3.5,0 v 9.875 a 1.751,1.751 0 0 0 1.75,1.75 z"
       id="path1548" />
  </g>
</svg>
