<?xml version="1.0" encoding="UTF-8" standalone="no"?>
<svg
   height="100"
   viewBox="0 10 60 60"
   width="200"
   dataName="Layer 3"
   version="1.1"
   id="svg87"
   xmlns="http://www.w3.org/2000/svg"
   xmlnsSvg="http://www.w3.org/2000/svg">
  <defs
     id="defs91" />
  <path style="fill:none;stroke:white;stroke-width:1;stroke-linecap:round;stroke-linejoin:round;stroke-miterlimit:10;stroke-dasharray:none;stroke-opacity:1"
     d="m 6,50 h 11 v 2 h -7 a 5.006,5.006 0 0 0 -5,5 1,1 0 0 0 1,1 h 52 a 1,1 0 0 0 1,-1 5.006,5.006 0 0 0 -5,-5 h -7 v -2 h 11 a 5.006,5.006 0 0 0 5,-5 V 11 A 5.006,5.006 0 0 0 58,6 H 6 a 5.006,5.006 0 0 0 -5,5 v 34 a 5.006,5.006 0 0 0 5,5 z m 13,0 h 2 v 2 h -2 z m 4,2 v -2 h 18 v 2 z m 33.829,4 H 7.171 A 3.006,3.006 0 0 1 10,54 h 44 a 3.006,3.006 0 0 1 2.829,2 z M 45,52 h -2 v -2 h 2 z M 3,11 A 3,3 0 0 1 6,8 h 52 a 3,3 0 0 1 3,3 v 34 a 3,3 0 0 1 -3,3 H 6 A 3,3 0 0 1 3,45 Z"
     id="path81" />
  <path style="fill:none;stroke:white;stroke-width:1;stroke-linecap:round;stroke-linejoin:round;stroke-miterlimit:10;stroke-dasharray:none;stroke-opacity:1"
     d="m 6,46 h 52 a 1,1 0 0 0 1,-1 V 11 A 1,1 0 0 0 58,10 H 6 a 1,1 0 0 0 -1,1 v 34 a 1,1 0 0 0 1,1 z M 7,32 h 14 v 12 h -2 v -1 a 4.983,4.983 0 0 0 -2.52,-4.315 3,3 0 1 0 -4.96,0 A 4.983,4.983 0 0 0 9,43 v 1 H 7 Z m 32,0 V 44 H 23 V 32 Z m 0,-2 H 7 v -8 h 5 a 1,1 0 0 0 0.929,-0.628 l 0.709,-1.774 1.378,7.581 a 1,1 0 0 0 0.913,0.819 L 16,28 a 1,1 0 0 0 0.949,-0.684 l 2.726,-8.18 0.339,2.029 A 1,1 0 0 0 21,22 h 4.279 l 1.772,5.316 a 1,1 0 0 0 0.92,0.684 0.977,0.977 0 0 0 0.958,-0.628 l 2.851,-7.129 0.25,1 A 1,1 0 0 0 33,22 h 6 z m -26,7 a 1,1 0 1 1 1,1 1,1 0 0 1 -1,-1 z m 1,3 a 3,3 0 0 1 3,3 v 1 h -6 v -1 a 3,3 0 0 1 3,-3 z m 43,4 H 41 V 12 H 57 Z M 39,12 v 8 H 33.781 L 32.97,16.757 a 1,1 0 0 0 -1.9,-0.129 l -2.986,7.466 -1.136,-3.41 A 1,1 0 0 0 26,20 H 21.847 L 20.986,14.835 A 1,1 0 0 0 20.078,14 0.989,0.989 0 0 0 19.051,14.681 l -2.765,8.3 -1.3,-7.16 A 1,1 0 0 0 13.073,15.628 L 11.323,20 H 7 v -8 z"
     id="path83" />
  <path style="fill:none;stroke:white;stroke-width:1;stroke-linecap:round;stroke-linejoin:round;stroke-miterlimit:10;stroke-dasharray:none;stroke-opacity:1"
     d="m 33,42 h 4 a 1,1 0 0 0 1,-1 v -6 a 1,1 0 0 0 -1,-1 h -4 a 1,1 0 0 0 -1,1 v 6 a 1,1 0 0 0 1,1 z m 1,-6 h 2 v 4 h -2 z m -9,6 h 4 a 1,1 0 0 0 1,-1 v -6 a 1,1 0 0 0 -1,-1 h -4 a 1,1 0 0 0 -1,1 v 6 a 1,1 0 0 0 1,1 z m 1,-6 h 2 v 4 H 26 Z M 44,24 h 4 a 1,1 0 0 0 1,-1 v -8 a 1,1 0 0 0 -1,-1 h -4 a 1,1 0 0 0 -1,1 v 8 a 1,1 0 0 0 1,1 z m 1,-8 h 2 v 6 h -2 z m 6,-2 h 3 v 2 h -3 z m 0,4 h 4 v 2 h -4 z m -8,8 h 10 v 2 H 43 Z m 0,4 h 12 v 2 H 43 Z m 6,4 a 4,4 0 1 0 4,4 4,4 0 0 0 -4,-4 z m 0,6 a 2,2 0 1 1 2,-2 2,2 0 0 1 -2,2 z"
     id="path85" />
</svg>
